<svg xmlns="http://www.w3.org/2000/svg" width="250" height="200" viewBox="0 0 250 200">
    <g fill="none" fill-rule="evenodd">
        <path fill="#F3F7FF" d="M207 65a7 7 0 0 1 0 14h-40a7 7 0 0 1 0 14h22a7 7 0 0 1 0 14h-10.174c-4.874 0-8.826 3.134-8.826 7 0 2.577 2 4.91 6 7a7 7 0 0 1 0 14H93a7 7 0 0 1 0-14H54a7 7 0 0 1 0-14h40a7 7 0 0 0 0-14H69a7 7 0 0 1 0-14h40a7 7 0 0 1 0-14h98zm0 28a7 7 0 1 1 0 14 7 7 0 0 1 0-14z"/>
        <path fill="#FFF" stroke="#75A4FE" stroke-linecap="round" stroke-width="2.5" d="M153.672 64l9.302 67.843.835 6.806a4 4 0 0 1-3.482 4.458l-58.56 7.19a4 4 0 0 1-4.458-3.483l-9.016-73.427a2 2 0 0 1 1.741-2.23c.007 0 .014 0 .021-.002l4.859-.545m3.928-.44l4.587-.515"/>
        <path fill="#E8F0FE" d="M151.14 68.27l8.42 61.483.757 6.168c.244 1.987-1.15 3.794-3.114 4.035l-52.442 6.439c-1.963.24-3.753-1.175-3.997-3.162l-8.15-66.376a2 2 0 0 1 1.742-2.23l6.487-.796"/>
        <path fill="#FFF" stroke="#75A4FE" stroke-width="2.5" d="M110.672 51.25a2.75 2.75 0 0 0-2.75 2.75v76a2.75 2.75 0 0 0 2.75 2.75h59a2.75 2.75 0 0 0 2.75-2.75V67.435c0-.73-.29-1.43-.806-1.945l-13.443-13.435a2.75 2.75 0 0 0-1.944-.805h-45.557z"/>
        <path stroke="#75A4FE" stroke-linecap="round" stroke-linejoin="round" stroke-width="2.5" d="M156.672 52.403V64a3 3 0 0 0 3 3h7.933"/>
        <path stroke="#A4C3FE" stroke-linecap="round" stroke-linejoin="round" stroke-width="2.5" d="M118.672 67h26m-26 12h43m-43 13h43m-43 13h43m-43 13h26"/>
    </g>
</svg>
